<svg width="128" height="128" viewBox="0 0 128 128" fill="none" xmlns="http://www.w3.org/2000/svg">
<rect width="128" height="128" fill="#F5F0E8"/>
<circle cx="64" cy="28" r="10" fill="#5D6A6A"/>
<g filter="url(#filter0_dd_573_4757)">
<path d="M92 38C96.4183 38 100 41.5817 100 46V46C100 50.4183 96.4183 54 92 54L36 54C31.5817 54 28 50.4183 28 46V46C28 41.5817 31.5817 38 36 38L92 38Z" fill="#5D6A6A"/>
</g>
<circle cx="64" cy="64" r="10" fill="#5D6A6A"/>
<g filter="url(#filter1_dd_573_4757)">
<path d="M92 74C96.4183 74 100 77.5817 100 82V82C100 86.4183 96.4183 90 92 90H36C31.5817 90 28 86.4183 28 82V82C28 77.5817 31.5817 74 36 74H92Z" fill="#5D6A6A"/>
</g>
<circle cx="64" cy="100" r="10" fill="#5D6A6A"/>
<defs>
<filter id="filter0_dd_573_4757" x="25" y="36" width="78" height="22" filterUnits="userSpaceOnUse" color-interpolation-filters="sRGB">
<feFlood flood-opacity="0" result="BackgroundImageFix"/>
<feColorMatrix in="SourceAlpha" type="matrix" values="0 0 0 0 0 0 0 0 0 0 0 0 0 0 0 0 0 0 127 0" result="hardAlpha"/>
<feMorphology radius="1" operator="erode" in="SourceAlpha" result="effect1_dropShadow_573_4757"/>
<feOffset dy="1"/>
<feGaussianBlur stdDeviation="1"/>
<feComposite in2="hardAlpha" operator="out"/>
<feColorMatrix type="matrix" values="0 0 0 0 0 0 0 0 0 0 0 0 0 0 0 0 0 0 0.1 0"/>
<feBlend mode="normal" in2="BackgroundImageFix" result="effect1_dropShadow_573_4757"/>
<feColorMatrix in="SourceAlpha" type="matrix" values="0 0 0 0 0 0 0 0 0 0 0 0 0 0 0 0 0 0 127 0" result="hardAlpha"/>
<feOffset dy="1"/>
<feGaussianBlur stdDeviation="1.5"/>
<feComposite in2="hardAlpha" operator="out"/>
<feColorMatrix type="matrix" values="0 0 0 0 0 0 0 0 0 0 0 0 0 0 0 0 0 0 0.1 0"/>
<feBlend mode="normal" in2="effect1_dropShadow_573_4757" result="effect2_dropShadow_573_4757"/>
<feBlend mode="normal" in="SourceGraphic" in2="effect2_dropShadow_573_4757" result="shape"/>
</filter>
<filter id="filter1_dd_573_4757" x="25" y="72" width="78" height="22" filterUnits="userSpaceOnUse" color-interpolation-filters="sRGB">
<feFlood flood-opacity="0" result="BackgroundImageFix"/>
<feColorMatrix in="SourceAlpha" type="matrix" values="0 0 0 0 0 0 0 0 0 0 0 0 0 0 0 0 0 0 127 0" result="hardAlpha"/>
<feMorphology radius="1" operator="erode" in="SourceAlpha" result="effect1_dropShadow_573_4757"/>
<feOffset dy="1"/>
<feGaussianBlur stdDeviation="1"/>
<feComposite in2="hardAlpha" operator="out"/>
<feColorMatrix type="matrix" values="0 0 0 0 0 0 0 0 0 0 0 0 0 0 0 0 0 0 0.1 0"/>
<feBlend mode="normal" in2="BackgroundImageFix" result="effect1_dropShadow_573_4757"/>
<feColorMatrix in="SourceAlpha" type="matrix" values="0 0 0 0 0 0 0 0 0 0 0 0 0 0 0 0 0 0 127 0" result="hardAlpha"/>
<feOffset dy="1"/>
<feGaussianBlur stdDeviation="1.5"/>
<feComposite in2="hardAlpha" operator="out"/>
<feColorMatrix type="matrix" values="0 0 0 0 0 0 0 0 0 0 0 0 0 0 0 0 0 0 0.1 0"/>
<feBlend mode="normal" in2="effect1_dropShadow_573_4757" result="effect2_dropShadow_573_4757"/>
<feBlend mode="normal" in="SourceGraphic" in2="effect2_dropShadow_573_4757" result="shape"/>
</filter>
</defs>
</svg>
